<svg width="183" height="86" viewBox="0 0 183 86" fill="none" xmlns="http://www.w3.org/2000/svg">
<path d="M14.6823 85.4666H0V-9.94653e-07H14.6823V85.4666Z" fill="black"/>
<path d="M23.0019 85.4666H20.4126V-9.94653e-07H23.0019V85.4666Z" fill="black"/>
<path d="M39.5305 85.4666H32.6234V-9.94653e-07H39.5305V85.4666Z" fill="black"/>
<path d="M52.1717 85.4666H48.7181V-9.94653e-07H52.1717V85.4666Z" fill="black"/>
<path d="M67.836 85.4666H61.7895V-9.94653e-07H67.836V85.4666Z" fill="black"/>
<path d="M86.52 85.4666H71.8376V-9.94653e-07H86.52V85.4666Z" fill="black"/>
<path d="M94.8431 85.4666H92.2538V-9.94653e-07H94.8431V85.4666Z" fill="black"/>
<path d="M111.372 85.4666H104.461V-9.94653e-07H111.372V85.4666Z" fill="black"/>
<path d="M124.874 85.4666H119.695V-9.94653e-07H124.874V85.4666Z" fill="black"/>
<path d="M141.402 85.4666H131.902V-9.94653e-07H141.402V85.4666Z" fill="black"/>
<path d="M152.749 85.4666H149.291V-9.94653e-07H152.749V85.4666Z" fill="black"/>
<path d="M168.409 85.4666H162.367V-9.94653e-07H168.409V85.4666Z" fill="black"/>
<path d="M101.894 85.4666H96.9543V-9.94653e-07H101.894V85.4666Z" fill="black"/>
<path d="M30.332 85.4666H26.8895V-9.94653e-07H30.332V85.4666Z" fill="black"/>
<path d="M157.699 85.4666H154.246V-9.94653e-07H157.699V85.4666Z" fill="black"/>
<path d="M182.562 85.4666H171.565V-9.94653e-07H182.562V85.4666Z" fill="black"/>
</svg>
