
<!-- Generator: visioncortex VTracer 0.6.4 -->
<svg version="1.1" xmlns="http://www.w3.org/2000/svg" viewBox="0 0 464 142" preserveAspectRatio="xMidYMid meet">
<path d="M0 0 C1.281 -0.003 2.563 -0.005 3.883 -0.008 C6.875 0.125 6.875 0.125 7.875 1.125 C7.978 2.469 8.013 3.819 8.02 5.167 C8.027 6.037 8.034 6.908 8.041 7.805 C8.043 8.768 8.046 9.73 8.049 10.722 C8.055 11.73 8.062 12.738 8.069 13.777 C8.083 15.974 8.095 18.171 8.105 20.369 C8.121 23.844 8.144 27.319 8.17 30.794 C8.241 40.678 8.301 50.561 8.352 60.445 C8.384 66.482 8.425 72.52 8.472 78.558 C8.488 80.862 8.5 83.167 8.509 85.472 C8.521 88.695 8.545 91.917 8.572 95.14 C8.573 96.096 8.573 97.053 8.574 98.038 C8.584 98.918 8.593 99.797 8.603 100.702 C8.607 101.464 8.612 102.226 8.616 103.011 C8.909 105.403 9.688 107.044 10.875 109.125 C12.855 109.125 14.835 109.125 16.875 109.125 C18.851 103.337 19.18 98.149 19.194 92.059 C19.209 90.58 19.209 90.58 19.224 89.071 C19.255 85.83 19.272 82.589 19.289 79.348 C19.308 77.093 19.327 74.839 19.348 72.584 C19.399 66.664 19.439 60.745 19.476 54.825 C19.516 48.778 19.567 42.732 19.617 36.686 C19.714 24.832 19.798 12.979 19.875 1.125 C23.295 0.408 26.424 -0.003 29.922 -0.008 C31.312 -0.01 31.312 -0.01 32.73 -0.012 C34.163 -0.006 34.163 -0.006 35.625 0 C36.596 -0.004 37.566 -0.008 38.566 -0.012 C39.488 -0.01 40.41 -0.009 41.359 -0.008 C42.623 -0.006 42.623 -0.006 43.913 -0.004 C45.875 0.125 45.875 0.125 46.875 1.125 C46.981 4.12 47.022 7.092 47.02 10.088 C47.024 11.03 47.027 11.972 47.03 12.942 C47.04 16.078 47.042 19.215 47.043 22.352 C47.046 24.534 47.05 26.716 47.053 28.898 C47.059 33.49 47.061 38.082 47.06 42.674 C47.06 48.523 47.074 54.372 47.091 60.221 C47.102 64.739 47.104 69.257 47.104 73.775 C47.105 75.928 47.109 78.082 47.117 80.235 C47.237 116.974 47.237 116.974 38.016 127.184 C30.298 134.377 21.852 136.514 11.398 136.336 C2.728 135.611 -4.942 133.451 -11.125 127.125 C-18.27 118.596 -19.586 107.814 -19.466 97.054 C-19.466 96.009 -19.466 94.963 -19.467 93.887 C-19.465 90.472 -19.442 87.059 -19.418 83.645 C-19.412 81.261 -19.408 78.878 -19.405 76.495 C-19.394 70.253 -19.364 64.011 -19.331 57.769 C-19.3 51.387 -19.287 45.005 -19.271 38.623 C-19.239 26.124 -19.188 13.624 -19.125 1.125 C-17.382 0.959 -15.638 0.796 -13.895 0.633 C-12.439 0.496 -12.439 0.496 -10.953 0.357 C-7.285 0.056 -3.681 -0.008 0 0 Z " fill="#000000" transform="translate(22.125,1.875)"/>
<path d="M0 0 C6.634 4.802 8.714 11.734 10.008 19.453 C10.257 22.644 10.262 25.812 10.235 29.012 C10.235 29.92 10.235 30.829 10.236 31.765 C10.234 34.735 10.219 37.705 10.203 40.676 C10.199 42.748 10.197 44.82 10.195 46.892 C10.187 52.322 10.167 57.752 10.145 63.182 C10.125 68.733 10.116 74.283 10.105 79.834 C10.084 90.707 10.049 101.58 10.008 112.453 C0.768 112.453 -8.472 112.453 -17.992 112.453 C-18.022 108.433 -18.022 108.433 -18.052 104.331 C-18.119 95.486 -18.197 86.641 -18.28 77.796 C-18.33 72.432 -18.376 67.068 -18.414 61.704 C-18.451 56.53 -18.497 51.356 -18.55 46.182 C-18.569 44.206 -18.584 42.229 -18.596 40.253 C-18.612 37.49 -18.641 34.727 -18.673 31.964 C-18.676 31.142 -18.678 30.321 -18.68 29.474 C-18.737 25.62 -18.805 23.735 -20.992 20.453 C-23.576 20.203 -23.576 20.203 -25.992 20.453 C-28.682 25.863 -29.436 30.05 -29.425 36.051 C-29.435 36.881 -29.445 37.711 -29.455 38.566 C-29.485 41.288 -29.495 44.009 -29.504 46.73 C-29.521 48.626 -29.539 50.522 -29.558 52.418 C-29.606 57.391 -29.636 62.363 -29.662 67.337 C-29.692 72.418 -29.738 77.499 -29.783 82.58 C-29.869 92.538 -29.935 102.495 -29.992 112.453 C-39.232 112.453 -48.472 112.453 -57.992 112.453 C-57.992 74.833 -57.992 37.213 -57.992 -1.547 C-48.752 -1.547 -39.512 -1.547 -29.992 -1.547 C-29.662 1.423 -29.332 4.393 -28.992 7.453 C-27.94 5.813 -27.94 5.813 -26.867 4.141 C-20.483 -4.62 -9.189 -4.677 0 0 Z " fill="#000000" transform="translate(134.9921875,23.546875)"/>
<path d="M0 0 C4.747 3.99 7.549 9.463 8.089 15.649 C8.156 18.073 8.158 20.49 8.137 22.916 C8.137 23.833 8.138 24.751 8.138 25.696 C8.137 28.716 8.121 31.735 8.105 34.754 C8.102 36.853 8.099 38.952 8.097 41.051 C8.089 46.565 8.07 52.078 8.047 57.592 C8.027 63.223 8.018 68.854 8.008 74.484 C7.986 85.525 7.951 96.565 7.91 107.605 C-1.33 107.605 -10.57 107.605 -20.09 107.605 C-20.585 104.14 -20.585 104.14 -21.09 100.605 C-21.77 101.534 -22.451 102.462 -23.152 103.418 C-26.794 107.757 -30.857 109.357 -36.465 109.98 C-42.323 109.374 -47.166 108.059 -51.902 104.48 C-58.613 95.66 -59.288 86.649 -59.34 75.918 C-59.36 74.88 -59.381 73.841 -59.402 72.771 C-59.45 63.218 -58.069 53.674 -51.09 46.605 C-45.526 42.351 -39.364 39.995 -32.777 37.793 C-31.438 37.326 -31.438 37.326 -30.072 36.85 C-23.517 34.605 -23.517 34.605 -20.09 34.605 C-20.177 32.021 -20.284 29.439 -20.402 26.855 C-20.436 25.761 -20.436 25.761 -20.471 24.645 C-20.683 20.4 -21.061 17.692 -24.09 14.605 C-25.74 15.265 -27.39 15.925 -29.09 16.605 C-29.181 17.779 -29.181 17.779 -29.273 18.977 C-29.357 19.988 -29.441 21 -29.527 22.043 C-29.609 23.052 -29.69 24.062 -29.773 25.102 C-30.09 27.605 -30.09 27.605 -31.09 28.605 C-33.004 28.705 -34.923 28.736 -36.84 28.738 C-38.005 28.74 -39.17 28.741 -40.371 28.742 C-41.598 28.738 -42.825 28.734 -44.09 28.73 C-45.931 28.736 -45.931 28.736 -47.809 28.742 C-48.974 28.741 -50.139 28.74 -51.34 28.738 C-52.417 28.737 -53.495 28.736 -54.605 28.735 C-57.09 28.605 -57.09 28.605 -58.09 27.605 C-58.636 17.778 -57.456 8.415 -51.09 0.605 C-38.295 -12.19 -13.625 -9.732 0 0 Z M-28.09 52.605 C-31.463 58.585 -31.546 63.964 -31.465 70.73 C-31.476 71.706 -31.488 72.682 -31.5 73.688 C-31.499 80.659 -31.499 80.659 -28.09 86.605 C-26.156 87.673 -26.156 87.673 -24.09 87.605 C-20.841 85.883 -20.841 85.883 -20.09 82.605 C-20.005 80.019 -19.974 77.461 -19.992 74.875 C-19.994 74.125 -19.995 73.374 -19.996 72.601 C-20.002 70.207 -20.015 67.812 -20.027 65.418 C-20.032 63.794 -20.037 62.169 -20.041 60.545 C-20.052 56.565 -20.069 52.585 -20.09 48.605 C-23.558 48.605 -25.444 50.5 -28.09 52.605 Z " fill="#000000" transform="translate(265.08984375,28.39453125)"/>
<path d="M0 0 C7.364 5.698 9.679 13.767 10.848 22.68 C11.066 27.152 11.095 31.61 11.053 36.087 C11.035 38.138 11.033 40.189 11.033 42.24 C10.988 52.257 10.988 52.257 9.848 55.68 C-3.022 55.68 -15.892 55.68 -29.152 55.68 C-29.008 60.197 -28.864 64.713 -28.715 69.367 C-28.672 70.783 -28.629 72.2 -28.584 73.659 C-28.527 75.346 -28.527 75.346 -28.469 77.066 C-28.432 78.213 -28.395 79.36 -28.358 80.542 C-28.174 83.35 -27.782 85.942 -27.152 88.68 C-23.011 88.889 -23.011 88.889 -19.152 87.68 C-18.244 84.955 -17.969 83.057 -17.836 80.23 C-17.798 79.466 -17.76 78.702 -17.72 77.915 C-17.677 76.951 -17.634 75.986 -17.59 74.992 C-17.445 71.919 -17.301 68.846 -17.152 65.68 C-7.912 65.68 1.328 65.68 10.848 65.68 C10.848 91.853 10.848 91.853 2.598 102.992 C-4.574 110.001 -13.933 111.653 -23.715 111.93 C-33.173 111.659 -42.664 109.658 -49.402 102.617 C-55.429 94.997 -57.251 85.045 -57.313 75.558 C-57.328 73.775 -57.328 73.775 -57.343 71.956 C-57.347 70.684 -57.351 69.412 -57.355 68.102 C-57.358 67.447 -57.361 66.792 -57.364 66.117 C-57.379 62.649 -57.388 59.182 -57.393 55.714 C-57.398 52.16 -57.422 48.605 -57.451 45.05 C-57.469 42.293 -57.474 39.535 -57.476 36.778 C-57.48 34.838 -57.499 32.899 -57.518 30.959 C-57.491 20.216 -56.025 11.415 -48.797 3.125 C-36.809 -8.774 -13.761 -8.441 0 0 Z M-26.84 16.992 C-29.169 19.986 -29.273 22.701 -29.25 26.348 C-29.247 27.24 -29.244 28.133 -29.24 29.053 C-29.232 29.982 -29.223 30.91 -29.215 31.867 C-29.21 32.808 -29.206 33.748 -29.201 34.717 C-29.189 37.038 -29.171 39.359 -29.152 41.68 C-25.192 41.68 -21.232 41.68 -17.152 41.68 C-17.098 38.617 -17.059 35.555 -17.027 32.492 C-17.011 31.628 -16.994 30.764 -16.977 29.873 C-16.942 25.391 -16.918 21.703 -19.152 17.68 C-19.812 17.02 -20.472 16.36 -21.152 15.68 C-24.982 15.27 -24.982 15.27 -26.84 16.992 Z " fill="#000000" transform="translate(410.15234375,26.3203125)"/>
<path d="M0 0 C9.24 0 18.48 0 28 0 C28.535 4.742 29.068 9.485 29.599 14.227 C29.779 15.83 29.959 17.432 30.14 19.035 C31.567 31.678 32.826 44.331 34 57 C34.073 56.345 34.146 55.69 34.221 55.015 C34.98 48.201 35.743 41.388 36.509 34.576 C36.794 32.032 37.078 29.489 37.361 26.946 C37.768 23.292 38.179 19.638 38.59 15.984 C38.779 14.276 38.779 14.276 38.972 12.534 C39.092 11.473 39.212 10.412 39.336 9.319 C39.44 8.387 39.544 7.454 39.652 6.493 C40 4 40 4 41 0 C50.24 0 59.48 0 69 0 C67.033 14.802 64.852 29.541 62.426 44.273 C62.094 46.305 61.762 48.336 61.43 50.367 C60.569 55.631 59.705 60.895 58.841 66.158 C57.953 71.562 57.07 76.967 56.186 82.371 C54.46 92.915 52.731 103.457 51 114 C40.11 114 29.22 114 18 114 C13.997 90.866 10.124 67.719 6.42 44.536 C5.745 40.307 5.064 36.079 4.383 31.851 C3.851 28.545 3.321 25.238 2.793 21.93 C2.542 20.368 2.291 18.805 2.039 17.243 C1.692 15.09 1.349 12.937 1.006 10.783 C0.811 9.566 0.616 8.348 0.415 7.093 C0 4 0 4 0 0 Z " fill="#000000" transform="translate(279,22)"/>
<path d="M0 0 C9.24 0 18.48 0 28 0 C28 44.22 28 88.44 28 134 C18.76 134 9.52 134 0 134 C0 89.78 0 45.56 0 0 Z " fill="#000000" transform="translate(430,2)"/>
<path d="M0 0 C0 7.59 0 15.18 0 23 C-8.937 24.937 -8.937 24.937 -11.758 25.543 C-12.486 25.703 -13.214 25.863 -13.965 26.027 C-15.088 26.271 -15.088 26.271 -16.234 26.519 C-18.012 26.846 -18.012 26.846 -19 28 C-19.09 30.673 -19.115 33.319 -19.098 35.992 C-19.095 37.248 -19.095 37.248 -19.093 38.53 C-19.089 40.354 -19.083 42.178 -19.075 44.002 C-19.062 46.884 -19.056 49.766 -19.051 52.648 C-19.04 58.765 -19.02 64.883 -19 71 C-18.976 78.085 -18.956 85.171 -18.944 92.256 C-18.938 95.104 -18.925 97.952 -18.912 100.8 C-18.909 102.536 -18.905 104.272 -18.902 106.008 C-18.897 106.807 -18.892 107.606 -18.887 108.429 C-18.887 110.286 -18.938 112.144 -19 114 C-20 115 -20 115 -22.684 115.114 C-23.852 115.108 -25.019 115.103 -26.223 115.098 C-28.113 115.093 -28.113 115.093 -30.041 115.088 C-31.382 115.08 -32.722 115.071 -34.062 115.062 C-35.407 115.057 -36.751 115.053 -38.096 115.049 C-41.397 115.037 -44.699 115.021 -48 115 C-48.023 100.284 -48.041 85.568 -48.052 70.852 C-48.057 64.019 -48.064 57.187 -48.075 50.354 C-48.086 43.767 -48.092 37.179 -48.095 30.591 C-48.097 28.072 -48.1 25.552 -48.106 23.033 C-48.113 19.517 -48.114 16.002 -48.114 12.487 C-48.117 11.434 -48.121 10.38 -48.124 9.296 C-48.122 7.867 -48.122 7.867 -48.12 6.41 C-48.121 5.578 -48.122 4.745 -48.123 3.888 C-48 2 -48 2 -47 1 C-45 0.912 -42.998 0.893 -40.996 0.902 C-39.781 0.906 -38.566 0.909 -37.314 0.912 C-36.035 0.92 -34.756 0.929 -33.438 0.938 C-32.154 0.942 -30.871 0.947 -29.549 0.951 C-26.366 0.963 -23.183 0.979 -20 1 C-19.67 3.97 -19.34 6.94 -19 10 C-18.629 9.258 -18.257 8.515 -17.875 7.75 C-15.322 4.005 -12.247 1.843 -8 0.25 C-5.353 -0.081 -2.668 0 0 0 Z " fill="#000000" transform="translate(202,21)"/>
</svg>